<?xml version="1.0" standalone="no"?>
<!DOCTYPE svg PUBLIC "-//W3C//DTD SVG 20010904//EN"
 "http://www.w3.org/TR/2001/REC-SVG-20010904/DTD/svg10.dtd">
<svg version="1.0" xmlns="http://www.w3.org/2000/svg"
 width="16.000000pt" height="16.000000pt" viewBox="0 0 16.000000 16.000000"
 preserveAspectRatio="xMidYMid meet">
<metadata>
Created by potrace 1.11, written by Peter Selinger 2001-2013
</metadata>
<g transform="translate(0.000000,16.000000) scale(0.003168,-0.003168)"
fill="#000000" stroke="none">
<path d="M665 5040 l-320 -5 -76 -36 c-88 -42 -169 -117 -211 -195 -61 -114
-58 -4 -57 -1899 1 -951 4 -1917 8 -2146 l6 -415 38 -78 c44 -89 117 -167 193
-208 114 -61 -1 -58 1949 -57 979 1 1945 4 2146 8 l365 6 78 38 c89 44 167
117 208 193 61 114 58 5 57 1889 -1 946 -4 1912 -8 2146 l-6 425 -38 78 c-44
89 -117 167 -193 208 -114 62 6 58 -1994 56 -1004 -1 -1969 -5 -2145 -8z
m1957 -101 c73 -15 219 -88 302 -151 205 -155 388 -377 806 -978 270 -389 477
-667 616 -830 195 -227 421 -433 612 -557 l82 -54 0 -150 0 -149 -2515 0
-2515 0 0 159 0 159 78 55 c377 264 633 557 1192 1362 346 499 459 644 645
831 221 222 385 312 572 313 40 1 96 -4 125 -10z m1980 -2990 c109 -23 203
-91 239 -173 23 -53 39 -173 39 -292 l0 -94 -159 0 -159 0 -3 118 c-4 128 -13
152 -55 152 -42 0 -59 -42 -58 -145 1 -114 20 -152 113 -227 96 -78 229 -207
263 -256 65 -94 95 -266 85 -482 -12 -233 -59 -317 -222 -392 -43 -20 -66 -23
-160 -23 -102 0 -115 2 -175 31 -36 17 -84 50 -106 73 -80 80 -102 158 -111
394 l-6 167 160 0 161 0 3 -168 c4 -188 10 -205 63 -200 24 2 35 11 49 38 25
48 19 229 -9 286 -12 24 -78 92 -167 174 -169 155 -205 201 -238 302 -22 66
-24 91 -24 248 0 152 3 184 22 245 56 180 239 270 455 224z m-3778 -49 c96
-34 174 -146 195 -280 14 -85 14 -285 0 -351 -13 -61 -66 -120 -124 -139 l-38
-12 59 -32 c108 -57 133 -125 141 -372 12 -370 -34 -500 -188 -533 -29 -6
-169 -11 -334 -11 l-285 0 0 876 0 876 268 -5 c190 -3 278 -8 306 -17z m698
-708 c3 -790 1 -767 57 -760 17 2 27 11 32 28 4 14 7 348 8 743 l1 717 176 0
175 0 -3 -727 c-4 -706 -5 -730 -25 -790 -60 -178 -162 -261 -333 -271 -191
-11 -339 83 -402 253 -22 60 -23 62 -26 798 l-3 737 170 0 170 0 3 -728z
m1031 696 c2 -18 22 -196 43 -396 21 -200 40 -358 42 -352 2 6 21 183 41 393
l36 382 228 3 227 2 0 -875 0 -875 -155 0 -155 0 -2 542 -3 543 -55 -542 -55
-543 -106 0 -107 0 -6 38 c-3 20 -31 267 -61 547 -31 281 -57 515 -59 520 -3
6 -5 -241 -5 -547 l-1 -558 -150 0 -150 0 0 875 0 875 224 0 223 0 6 -32z
m1259 21 c144 -31 208 -110 229 -286 7 -52 9 -179 6 -308 -5 -255 -15 -303
-76 -364 -49 -49 -112 -70 -228 -78 l-93 -6 0 -349 0 -348 -170 0 -170 0 0
875 0 875 225 0 c127 0 247 -5 277 -11z"/>
<path d="M2760 4477 c-45 -14 -107 -77 -133 -136 -45 -100 -20 -250 56 -329
46 -48 77 -61 160 -68 120 -11 191 27 245 130 24 45 27 62 27 151 0 83 -4 107
-22 140 -27 51 -68 90 -115 109 -43 18 -165 20 -218 3z m232 -24 c49 -29 86
-83 104 -153 31 -121 -14 -255 -105 -315 -37 -25 -46 -27 -135 -23 -87 3 -97
5 -133 33 -21 18 -51 57 -68 90 -26 52 -30 71 -30 140 0 62 5 89 22 121 27 50
93 111 130 120 16 3 33 8 38 10 25 10 149 -6 177 -23z"/>
<path d="M2770 4438 c-120 -61 -154 -249 -69 -382 37 -60 90 -85 175 -86 52 0
67 4 101 29 133 97 127 374 -10 440 -59 29 -139 28 -197 -1z"/>
<path d="M1945 4327 c-30 -69 -91 -262 -105 -335 -16 -80 -11 -116 17 -120 33
-5 63 34 102 129 18 46 45 104 58 127 l25 44 30 -29 c44 -42 209 -293 201
-306 -4 -7 -69 -106 -146 -221 -213 -321 -243 -391 -322 -746 -71 -317 -89
-366 -128 -354 -35 10 -102 50 -250 151 -162 110 -174 112 -263 55 -69 -45
-154 -125 -154 -145 0 -8 7 -21 16 -28 14 -11 30 -9 108 19 50 18 98 32 107
32 21 0 114 -72 284 -219 77 -67 160 -134 184 -148 l44 -27 21 27 c12 14 93
139 181 277 88 138 175 272 194 297 l34 46 56 -6 c112 -12 443 -102 521 -142
167 -84 370 -227 572 -403 133 -115 113 -116 195 8 66 100 98 158 90 166 -3 3
-36 -4 -72 -16 -43 -14 -78 -20 -99 -16 -21 4 -79 45 -166 116 -176 144 -321
248 -505 360 -266 163 -285 177 -285 208 0 15 11 46 25 70 34 60 162 229 208
275 l38 38 29 -23 c16 -13 69 -60 118 -106 l90 -82 60 64 c88 95 222 289 222
323 0 24 -38 13 -167 -47 -109 -52 -131 -59 -149 -50 -12 7 -91 87 -177 180
-157 169 -288 286 -428 385 -102 72 -358 225 -376 225 -8 0 -25 -24 -38 -53z"/>
<path d="M600 1425 l0 -195 29 0 c16 0 39 9 52 19 22 18 24 27 28 140 2 67 0
137 -3 157 -9 45 -38 74 -76 74 l-30 0 0 -195z"/>
<path d="M600 716 l0 -246 29 0 c16 0 39 9 52 19 23 19 24 24 27 197 5 245 3
252 -75 269 l-33 7 0 -246z"/>
<path d="M3652 1398 l3 -223 30 3 c17 2 39 12 50 23 19 18 20 33 20 200 0 178
0 181 -24 200 -13 10 -36 19 -52 19 l-29 0 2 -222z"/>
</g>
</svg>
